ffmpeg started on 2016-12-12 at 07:54:51
Report written to "Output/theora/results/ffmpeg/old_town_cross_2160p509000k.log"
Command line:
Tools/ffmpeg/ffmpeg -benchmark -y -i Input/y4m/old_town_cross_2160p50.y4m -c:v libtheora -b:v 9000k -an Output/theora/encoded/old_town_cross_2160p509000k.mkv
ffmpeg version N-82227-gdb23fde Copyright (c) 2000-2016 the FFmpeg developers
  built with gcc 5.4.0 (Ubuntu 5.4.0-6ubuntu1~16.04.2) 20160609
  configuration: --prefix=/home/jaroslav/ffmpeg_build --pkg-config-flags=--static --extra-cflags=-I/home/jaroslav/ffmpeg_build/include --extra-ldflags=-L/home/jaroslav/ffmpeg_build/lib --bindir=/home/jaroslav/bin --enable-gpl --enable-libass --enable-libfdk-aac --enable-libfreetype --enable-libmp3lame --enable-libopus --enable-libtheora --enable-libvorbis --enable-libvpx --enable-libx264 --enable-libx265 --enable-nvenc --enable-libmfx --enable-libxvid --enable-libgsm --enable-libopencore-amrnb --enable-version3 --enable-nonfree
  libavutil      55. 35.100 / 55. 35.100
  libavcodec     57. 66.101 / 57. 66.101
  libavformat    57. 57.100 / 57. 57.100
  libavdevice    57.  2.100 / 57.  2.100
  libavfilter     6. 66.100 /  6. 66.100
  libswscale      4.  3.100 /  4.  3.100
  libswresample   2.  4.100 /  2.  4.100
  libpostproc    54.  2.100 / 54.  2.100
Input #0, yuv4mpegpipe, from 'Input/y4m/old_town_cross_2160p50.y4m':
  Duration: 00:00:10.00, start: 0.000000, bitrate: 4976642 kb/s
    Stream #0:0: Video: rawvideo (I420 / 0x30323449), yuv420p(progressive), 3840x2160, SAR 1:1 DAR 16:9, 50 fps, 50 tbr, 50 tbn, 50 tbc
Output #0, matroska, to 'Output/theora/encoded/old_town_cross_2160p509000k.mkv':
  Metadata:
    encoder         : Lavf57.57.100
    Stream #0:0: Video: theora (libtheora) (theo / 0x6F656874), yuv420p, 3840x2160 [SAR 1:1 DAR 16:9], q=2-31, 9000 kb/s, 50 fps, 1k tbn, 50 tbc
    Metadata:
      encoder         : Lavc57.66.101 libtheora
Stream mapping:
  Stream #0:0 -> #0:0 (rawvideo (native) -> theora (libtheora))
Press [q] to stop, [?] for help
frame=    3 fps=0.0 q=-0.0 size=       4kB time=00:00:00.04 bitrate= 779.5kbits/s speed=0.0565x    frame=    5 fps=3.7 q=-0.0 size=       4kB time=00:00:00.08 bitrate= 394.6kbits/s speed=0.0592x    frame=    7 fps=3.5 q=-0.0 size=       4kB time=00:00:00.12 bitrate= 264.1kbits/s speed=0.0604x    frame=    9 fps=3.4 q=-0.0 size=       4kB time=00:00:00.16 bitrate= 198.5kbits/s speed=0.0608x    frame=   11 fps=3.3 q=-0.0 size=       4kB time=00:00:00.20 bitrate= 159.0kbits/s speed=0.0611x    frame=   13 fps=3.3 q=-0.0 size=     217kB time=00:00:00.24 bitrate=7379.9kbits/s speed=0.0613x    frame=   16 fps=3.4 q=-0.0 size=     217kB time=00:00:00.30 bitrate=5908.8kbits/s speed=0.0635x    frame=   18 fps=3.3 q=-0.0 size=     217kB time=00:00:00.34 bitrate=5215.7kbits/s speed=0.0632x    frame=   20 fps=3.3 q=-0.0 size=     217kB time=00:00:00.38 bitrate=4668.1kbits/s speed=0.0631x    frame=   22 fps=3.3 q=-0.0 size=     217kB time=00:00:00.42 bitrate=4224.6kbits/s speed=0.0629x    frame=   24 fps=3.3 q=-0.0 size=     217kB time=00:00:00.46 bitrate=3858.0kbits/s speed=0.0627x    frame=   26 fps=3.3 q=-0.0 size=     485kB time=00:00:00.50 bitrate=7930.3kbits/s speed=0.0638x    frame=   28 fps=3.3 q=-0.0 size=     485kB time=00:00:00.54 bitrate=7344.0kbits/s speed=0.0637x    frame=   30 fps=3.3 q=-0.0 size=     485kB time=00:00:00.58 bitrate=6838.3kbits/s speed=0.0635x    frame=   32 fps=3.3 q=-0.0 size=     485kB time=00:00:00.62 bitrate=6397.9kbits/s speed=0.0634x    frame=   34 fps=3.3 q=-0.0 size=     485kB time=00:00:00.66 bitrate=6010.7kbits/s speed=0.0632x    frame=   36 fps=3.2 q=-0.0 size=     485kB time=00:00:00.70 bitrate=5667.7kbits/s speed=0.0631x    frame=   38 fps=3.3 q=-0.0 size=     763kB time=00:00:00.74 bitrate=8433.0kbits/s speed=0.0638x    frame=   40 fps=3.3 q=-0.0 size=     763kB time=00:00:00.78 bitrate=8001.1kbits/s speed=0.0637x    frame=   42 fps=3.3 q=-0.0 size=     763kB time=00:00:00.82 bitrate=7611.3kbits/s speed=0.0636x    frame=   44 fps=3.2 q=-0.0 size=     763kB time=00:00:00.86 bitrate=7257.7kbits/s speed=0.0635x    frame=   46 fps=3.2 q=-0.0 size=     763kB time=00:00:00.90 bitrate=6935.5kbits/s speed=0.0634x    frame=   48 fps=3.2 q=-0.0 size=     763kB time=00:00:00.94 bitrate=6640.7kbits/s speed=0.0632x    frame=   50 fps=3.2 q=-0.0 size=    1019kB time=00:00:00.98 bitrate=8512.3kbits/s speed=0.0637x    frame=   52 fps=3.2 q=-0.0 size=    1019kB time=00:00:01.02 bitrate=8178.8kbits/s speed=0.0637x    frame=   54 fps=3.2 q=-0.0 size=    1019kB time=00:00:01.06 bitrate=7870.5kbits/s speed=0.0636x    frame=   56 fps=3.2 q=-0.0 size=    1019kB time=00:00:01.10 bitrate=7584.6kbits/s speed=0.0635x    frame=   58 fps=3.2 q=-0.0 size=    1019kB time=00:00:01.14 bitrate=7318.7kbits/s speed=0.0635x    frame=   60 fps=3.2 q=-0.0 size=    1019kB time=00:00:01.18 bitrate=7070.8kbits/s speed=0.0634x    frame=   62 fps=3.2 q=-0.0 size=    1299kB time=00:00:01.22 bitrate=8718.3kbits/s speed=0.0638x    frame=   64 fps=3.2 q=-0.0 size=    1299kB time=00:00:01.26 bitrate=8441.8kbits/s speed=0.0638x    frame=   66 fps=3.2 q=-0.0 size=    1299kB time=00:00:01.30 bitrate=8182.2kbits/s speed=0.0637x    frame=   68 fps=3.2 q=-0.0 size=    1299kB time=00:00:01.34 bitrate=7938.2kbits/s speed=0.0636x    frame=   70 fps=3.2 q=-0.0 size=    1299kB time=00:00:01.38 bitrate=7708.2kbits/s speed=0.0636x    frame=   72 fps=3.2 q=-0.0 size=    1299kB time=00:00:01.42 bitrate=7491.3kbits/s speed=0.0635x    frame=   74 fps=3.2 q=-0.0 size=    1580kB time=00:00:01.46 bitrate=8858.4kbits/s speed=0.0638x    frame=   76 fps=3.2 q=-0.0 size=    1580kB time=00:00:01.50 bitrate=8622.3kbits/s speed=0.0638x    frame=   78 fps=3.2 q=-0.0 size=    1580kB time=00:00:01.54 bitrate=8398.5kbits/s speed=0.0638x    frame=   80 fps=3.2 q=-0.0 size=    1580kB time=00:00:01.58 bitrate=8186.0kbits/s speed=0.0637x    frame=   82 fps=3.2 q=-0.0 size=    1580kB time=00:00:01.62 bitrate=7984.0kbits/s speed=0.0636x    frame=   84 fps=3.2 q=-0.0 size=    1580kB time=00:00:01.66 bitrate=7791.7kbits/s speed=0.0636x    frame=   86 fps=3.2 q=-0.0 size=    1833kB time=00:00:01.70 bitrate=8829.3kbits/s speed=0.0639x    frame=   88 fps=3.2 q=-0.0 size=    1833kB time=00:00:01.74 bitrate=8626.5kbits/s speed=0.0639x    frame=   90 fps=3.2 q=-0.0 size=    1833kB time=00:00:01.78 bitrate=8432.7kbits/s speed=0.0638x    frame=   92 fps=3.2 q=-0.0 size=    1833kB time=00:00:01.82 bitrate=8247.5kbits/s speed=0.0638x    frame=   94 fps=3.2 q=-0.0 size=    1833kB time=00:00:01.86 bitrate=8070.2kbits/s speed=0.0637x    frame=   96 fps=3.2 q=-0.0 size=    1833kB time=00:00:01.90 bitrate=7900.4kbits/s speed=0.0637x    frame=   98 fps=3.2 q=-0.0 size=    2116kB time=00:00:01.94 bitrate=8932.3kbits/s speed=0.0639x    frame=  100 fps=3.2 q=-0.0 size=    2116kB time=00:00:01.98 bitrate=8751.9kbits/s speed=0.0639x    frame=  102 fps=3.2 q=-0.0 size=    2116kB time=00:00:02.02 bitrate=8578.7kbits/s speed=0.0639x    frame=  104 fps=3.2 q=-0.0 size=    2116kB time=00:00:02.06 bitrate=8412.2kbits/s speed=0.0638x    frame=  106 fps=3.2 q=-0.0 size=    2116kB time=00:00:02.10 bitrate=8252.0kbits/s speed=0.0637x    frame=  108 fps=3.2 q=-0.0 size=    2116kB time=00:00:02.14 bitrate=8097.9kbits/s speed=0.0637x    frame=  110 fps=3.2 q=-0.0 size=    2382kB time=00:00:02.18 bitrate=8948.2kbits/s speed=0.0639x    frame=  112 fps=3.2 q=-0.0 size=    2382kB time=00:00:02.22 bitrate=8787.1kbits/s speed=0.0639x    frame=  114 fps=3.2 q=-0.0 size=    2382kB time=00:00:02.26 bitrate=8631.6kbits/s speed=0.0639x    frame=  116 fps=3.2 q=-0.0 size=    2382kB time=00:00:02.30 bitrate=8481.5kbits/s speed=0.0639x    frame=  118 fps=3.2 q=-0.0 size=    2382kB time=00:00:02.34 bitrate=8336.6kbits/s speed=0.0638x    frame=  120 fps=3.2 q=-0.0 size=    2382kB time=00:00:02.38 bitrate=8196.6kbits/s speed=0.0638x    frame=  122 fps=3.2 q=-0.0 size=    2647kB time=00:00:02.42 bitrate=8956.0kbits/s speed=0.064x    frame=  124 fps=3.2 q=-0.0 size=    2647kB time=00:00:02.46 bitrate=8810.4kbits/s speed=0.0639x    frame=  126 fps=3.2 q=-0.0 size=    2647kB time=00:00:02.50 bitrate=8669.5kbits/s speed=0.0638x    frame=  128 fps=3.2 q=-0.0 size=    2647kB time=00:00:02.54 bitrate=8533.0kbits/s speed=0.0637x    frame=  130 fps=3.2 q=-0.0 size=    2647kB time=00:00:02.58 bitrate=8400.8kbits/s speed=0.0637x    frame=  132 fps=3.2 q=-0.0 size=    2647kB time=00:00:02.62 bitrate=8272.6kbits/s speed=0.0636x    frame=  134 fps=3.2 q=-0.0 size=    2917kB time=00:00:02.66 bitrate=8979.9kbits/s speed=0.0638x    frame=  136 fps=3.2 q=-0.0 size=    2917kB time=00:00:02.70 bitrate=8846.9kbits/s speed=0.0638x    frame=  138 fps=3.2 q=-0.0 size=    2917kB time=00:00:02.74 bitrate=8717.8kbits/s speed=0.0638x    frame=  140 fps=3.2 q=-0.0 size=    2917kB time=00:00:02.78 bitrate=8592.5kbits/s speed=0.0638x    frame=  142 fps=3.2 q=-0.0 size=    2917kB time=00:00:02.82 bitrate=8470.6kbits/s speed=0.0637x    frame=  144 fps=3.2 q=-0.0 size=    2917kB time=00:00:02.86 bitrate=8352.2kbits/s speed=0.0637x    frame=  146 fps=3.2 q=-0.0 size=    3193kB time=00:00:02.90 bitrate=9017.3kbits/s speed=0.0639x    frame=  148 fps=3.2 q=-0.0 size=    3193kB time=00:00:02.94 bitrate=8894.6kbits/s speed=0.0639x    frame=  150 fps=3.2 q=-0.0 size=    3193kB time=00:00:02.98 bitrate=8775.3kbits/s speed=0.0638x    frame=  152 fps=3.2 q=-0.0 size=    3193kB time=00:00:03.02 bitrate=8659.1kbits/s speed=0.0638x    frame=  154 fps=3.2 q=-0.0 size=    3193kB time=00:00:03.06 bitrate=8545.9kbits/s speed=0.0638x    frame=  156 fps=3.2 q=-0.0 size=    3193kB time=00:00:03.10 bitrate=8435.7kbits/s speed=0.0637x    frame=  159 fps=3.2 q=-0.0 size=    3443kB time=00:00:03.16 bitrate=8923.8kbits/s speed=0.0639x    frame=  161 fps=3.2 q=-0.0 size=    3443kB time=00:00:03.20 bitrate=8812.3kbits/s speed=0.0639x    frame=  163 fps=3.2 q=-0.0 size=    3443kB time=00:00:03.24 bitrate=8703.5kbits/s speed=0.0639x    frame=  165 fps=3.2 q=-0.0 size=    3443kB time=00:00:03.28 bitrate=8597.4kbits/s speed=0.0638x    frame=  167 fps=3.2 q=-0.0 size=    3443kB time=00:00:03.32 bitrate=8493.9kbits/s speed=0.0638x    frame=  169 fps=3.2 q=-0.0 size=    3700kB time=00:00:03.36 bitrate=9017.2kbits/s speed=0.0638x    frame=  172 fps=3.2 q=-0.0 size=    3700kB time=00:00:03.42 bitrate=8859.1kbits/s speed=0.0639x    frame=  174 fps=3.2 q=-0.0 size=    3700kB time=00:00:03.46 bitrate=8756.7kbits/s speed=0.0639x    frame=  175 fps=3.2 q=-0.0 size=    3700kB time=00:00:03.48 bitrate=8706.4kbits/s speed=0.0636x    frame=  177 fps=3.2 q=-0.0 size=    3700kB time=00:00:03.52 bitrate=8607.5kbits/s speed=0.0636x    frame=  179 fps=3.2 q=-0.0 size=    3700kB time=00:00:03.56 bitrate=8510.8kbits/s speed=0.0635x    frame=  181 fps=3.2 q=-0.0 size=    3973kB time=00:00:03.60 bitrate=9038.0kbits/s speed=0.0635x    frame=  184 fps=3.2 q=-0.0 size=    3973kB time=00:00:03.66 bitrate=8889.9kbits/s speed=0.0637x    frame=  186 fps=3.2 q=-0.0 size=    3973kB time=00:00:03.70 bitrate=8793.8kbits/s speed=0.0636x    frame=  188 fps=3.2 q=-0.0 size=    3973kB time=00:00:03.74 bitrate=8699.8kbits/s speed=0.0636x    frame=  190 fps=3.2 q=-0.0 size=    3973kB time=00:00:03.78 bitrate=8607.8kbits/s speed=0.0636x    frame=  192 fps=3.2 q=-0.0 size=    3973kB time=00:00:03.82 bitrate=8517.7kbits/s speed=0.0636x    frame=  194 fps=3.2 q=-0.0 size=    4234kB time=00:00:03.86 bitrate=8983.7kbits/s speed=0.0637x    frame=  196 fps=3.2 q=-0.0 size=    4234kB time=00:00:03.90 bitrate=8891.6kbits/s speed=0.0637x    frame=  198 fps=3.2 q=-0.0 size=    4234kB time=00:00:03.94 bitrate=8801.3kbits/s speed=0.0637x    frame=  200 fps=3.2 q=-0.0 size=    4234kB time=00:00:03.98 bitrate=8712.9kbits/s speed=0.0637x    frame=  202 fps=3.2 q=-0.0 size=    4234kB time=00:00:04.02 bitrate=8626.2kbits/s speed=0.0636x    frame=  204 fps=3.2 q=-0.0 size=    4234kB time=00:00:04.06 bitrate=8541.3kbits/s speed=0.0636x    frame=  206 fps=3.2 q=-0.0 size=    4505kB time=00:00:04.10 bitrate=8999.1kbits/s speed=0.0637x    frame=  208 fps=3.2 q=-0.0 size=    4505kB time=00:00:04.14 bitrate=8912.2kbits/s speed=0.0637x    frame=  210 fps=3.2 q=-0.0 size=    4505kB time=00:00:04.18 bitrate=8826.9kbits/s speed=0.0637x    frame=  212 fps=3.2 q=-0.0 size=    4505kB time=00:00:04.22 bitrate=8743.2kbits/s speed=0.0637x    frame=  214 fps=3.2 q=-0.0 size=    4505kB time=00:00:04.26 bitrate=8661.2kbits/s speed=0.0637x    frame=  216 fps=3.2 q=-0.0 size=    4505kB time=00:00:04.30 bitrate=8580.6kbits/s speed=0.0637x    frame=  218 fps=3.2 q=-0.0 size=    4772kB time=00:00:04.34 bitrate=9006.2kbits/s speed=0.0638x    frame=  220 fps=3.2 q=-0.0 size=    4772kB time=00:00:04.38 bitrate=8924.0kbits/s speed=0.0638x    frame=  222 fps=3.2 q=-0.0 size=    4772kB time=00:00:04.42 bitrate=8843.3kbits/s speed=0.0638x    frame=  224 fps=3.2 q=-0.0 size=    4772kB time=00:00:04.46 bitrate=8764.0kbits/s speed=0.0637x    frame=  226 fps=3.2 q=-0.0 size=    4772kB time=00:00:04.50 bitrate=8686.1kbits/s speed=0.0637x    frame=  228 fps=3.2 q=-0.0 size=    4772kB time=00:00:04.54 bitrate=8609.6kbits/s speed=0.0637x    frame=  230 fps=3.2 q=-0.0 size=    5036kB time=00:00:04.58 bitrate=9006.1kbits/s speed=0.0638x    frame=  232 fps=3.2 q=-0.0 size=    5036kB time=00:00:04.62 bitrate=8928.1kbits/s speed=0.0638x    frame=  234 fps=3.2 q=-0.0 size=    5036kB time=00:00:04.66 bitrate=8851.5kbits/s speed=0.0638x    frame=  236 fps=3.2 q=-0.0 size=    5036kB time=00:00:04.70 bitrate=8776.2kbits/s speed=0.0638x    frame=  238 fps=3.2 q=-0.0 size=    5036kB time=00:00:04.74 bitrate=8702.1kbits/s speed=0.0637x    frame=  240 fps=3.2 q=-0.0 size=    5036kB time=00:00:04.78 bitrate=8629.3kbits/s speed=0.0637x    frame=  242 fps=3.2 q=-0.0 size=    5304kB time=00:00:04.82 bitrate=9013.3kbits/s speed=0.0638x    frame=  244 fps=3.2 q=-0.0 size=    5304kB time=00:00:04.86 bitrate=8939.1kbits/s speed=0.0638x    frame=  246 fps=3.2 q=-0.0 size=    5304kB time=00:00:04.90 bitrate=8866.2kbits/s speed=0.0638x    frame=  248 fps=3.2 q=-0.0 size=    5304kB time=00:00:04.94 bitrate=8794.4kbits/s speed=0.0638x    frame=  250 fps=3.2 q=-0.0 size=    5304kB time=00:00:04.98 bitrate=8723.8kbits/s speed=0.0637x    frame=  252 fps=3.2 q=-0.0 size=    5304kB time=00:00:05.02 bitrate=8654.3kbits/s speed=0.0637x    frame=  254 fps=3.2 q=-0.0 size=    5571kB time=00:00:05.06 bitrate=9017.4kbits/s speed=0.0638x    frame=  256 fps=3.2 q=-0.0 size=    5571kB time=00:00:05.10 bitrate=8946.6kbits/s speed=0.0638x    frame=  258 fps=3.2 q=-0.0 size=    5571kB time=00:00:05.14 bitrate=8877.0kbits/s speed=0.0638x    frame=  260 fps=3.2 q=-0.0 size=    5571kB time=00:00:05.18 bitrate=8808.5kbits/s speed=0.0638x    frame=  262 fps=3.2 q=-0.0 size=    5571kB time=00:00:05.22 bitrate=8741.0kbits/s speed=0.0637x    frame=  264 fps=3.2 q=-0.0 size=    5571kB time=00:00:05.26 bitrate=8674.6kbits/s speed=0.0637x    frame=  266 fps=3.2 q=-0.0 size=    5825kB time=00:00:05.30 bitrate=9001.6kbits/s speed=0.0638x    frame=  268 fps=3.2 q=-0.0 size=    5825kB time=00:00:05.34 bitrate=8934.1kbits/s speed=0.0638x    frame=  270 fps=3.2 q=-0.0 size=    5825kB time=00:00:05.38 bitrate=8867.7kbits/s speed=0.0638x    frame=  272 fps=3.2 q=-0.0 size=    5825kB time=00:00:05.42 bitrate=8802.3kbits/s speed=0.0638x    frame=  274 fps=3.2 q=-0.0 size=    5825kB time=00:00:05.46 bitrate=8737.8kbits/s speed=0.0637x    frame=  276 fps=3.2 q=-0.0 size=    5825kB time=00:00:05.50 bitrate=8674.3kbits/s speed=0.0637x    frame=  278 fps=3.2 q=-0.0 size=    6109kB time=00:00:05.54 bitrate=9032.2kbits/s speed=0.0638x    frame=  280 fps=3.2 q=-0.0 size=    6109kB time=00:00:05.58 bitrate=8967.5kbits/s speed=0.0638x    frame=  282 fps=3.2 q=-0.0 size=    6109kB time=00:00:05.62 bitrate=8903.7kbits/s speed=0.0638x    frame=  284 fps=3.2 q=-0.0 size=    6109kB time=00:00:05.66 bitrate=8840.8kbits/s speed=0.0638x    frame=  286 fps=3.2 q=-0.0 size=    6109kB time=00:00:05.70 bitrate=8778.7kbits/s speed=0.0637x    frame=  288 fps=3.2 q=-0.0 size=    6109kB time=00:00:05.74 bitrate=8717.6kbits/s speed=0.0637x    frame=  290 fps=3.2 q=-0.0 size=    6383kB time=00:00:05.78 bitrate=9045.7kbits/s speed=0.0638x    frame=  292 fps=3.2 q=-0.0 size=    6383kB time=00:00:05.82 bitrate=8983.5kbits/s speed=0.0638x    frame=  294 fps=3.2 q=-0.0 size=    6383kB time=00:00:05.86 bitrate=8922.2kbits/s speed=0.0638x    frame=  296 fps=3.2 q=-0.0 size=    6383kB time=00:00:05.90 bitrate=8861.7kbits/s speed=0.0638x    frame=  298 fps=3.2 q=-0.0 size=    6383kB time=00:00:05.94 bitrate=8802.1kbits/s speed=0.0638x    frame=  300 fps=3.2 q=-0.0 size=    6383kB time=00:00:05.98 bitrate=8743.2kbits/s speed=0.0637x    frame=  303 fps=3.2 q=-0.0 size=    6626kB time=00:00:06.04 bitrate=8985.2kbits/s speed=0.0638x    frame=  305 fps=3.2 q=-0.0 size=    6626kB time=00:00:06.08 bitrate=8926.1kbits/s speed=0.0638x    frame=  307 fps=3.2 q=-0.0 size=    6626kB time=00:00:06.12 bitrate=8867.7kbits/s speed=0.0638x    frame=  309 fps=3.2 q=-0.0 size=    6626kB time=00:00:06.16 bitrate=8810.2kbits/s speed=0.0638x    frame=  311 fps=3.2 q=-0.0 size=    6626kB time=00:00:06.20 bitrate=8753.3kbits/s speed=0.0638x    frame=  313 fps=3.2 q=-0.0 size=    6882kB time=00:00:06.24 bitrate=9033.0kbits/s speed=0.0637x    frame=  316 fps=3.2 q=-0.0 size=    6882kB time=00:00:06.30 bitrate=8947.0kbits/s speed=0.0638x    frame=  318 fps=3.2 q=-0.0 size=    6882kB time=00:00:06.34 bitrate=8890.6kbits/s speed=0.0638x    frame=  320 fps=3.2 q=-0.0 size=    6882kB time=00:00:06.38 bitrate=8834.8kbits/s speed=0.0638x    frame=  322 fps=3.2 q=-0.0 size=    6882kB time=00:00:06.42 bitrate=8779.8kbits/s speed=0.0638x    frame=  324 fps=3.2 q=-0.0 size=    6882kB time=00:00:06.46 bitrate=8725.4kbits/s speed=0.0638x    frame=  326 fps=3.2 q=-0.0 size=    7147kB time=00:00:06.50 bitrate=9005.9kbits/s speed=0.0638x    frame=  328 fps=3.2 q=-0.0 size=    7147kB time=00:00:06.54 bitrate=8950.8kbits/s speed=0.0638x    frame=  330 fps=3.2 q=-0.0 size=    7147kB time=00:00:06.58 bitrate=8896.4kbits/s speed=0.0638x    frame=  332 fps=3.2 q=-0.0 size=    7147kB time=00:00:06.62 bitrate=8842.7kbits/s speed=0.0638x    frame=  334 fps=3.2 q=-0.0 size=    7147kB time=00:00:06.66 bitrate=8789.6kbits/s speed=0.0638x    frame=  336 fps=3.2 q=-0.0 size=    7147kB time=00:00:06.70 bitrate=8737.1kbits/s speed=0.0638x    frame=  338 fps=3.2 q=-0.0 size=    7408kB time=00:00:06.74 bitrate=9002.0kbits/s speed=0.0638x    frame=  340 fps=3.2 q=-0.0 size=    7408kB time=00:00:06.78 bitrate=8948.9kbits/s speed=0.0638x    frame=  342 fps=3.2 q=-0.0 size=    7408kB time=00:00:06.82 bitrate=8896.4kbits/s speed=0.0638x    frame=  344 fps=3.2 q=-0.0 size=    7408kB time=00:00:06.86 bitrate=8844.5kbits/s speed=0.0638x    frame=  346 fps=3.2 q=-0.0 size=    7408kB time=00:00:06.90 bitrate=8793.3kbits/s speed=0.0638x    frame=  348 fps=3.2 q=-0.0 size=    7408kB time=00:00:06.94 bitrate=8742.6kbits/s speed=0.0637x    frame=  350 fps=3.2 q=-0.0 size=    7671kB time=00:00:06.98 bitrate=9002.2kbits/s speed=0.0638x    frame=  352 fps=3.2 q=-0.0 size=    7671kB time=00:00:07.02 bitrate=8950.9kbits/s speed=0.0638x    frame=  354 fps=3.2 q=-0.0 size=    7671kB time=00:00:07.06 bitrate=8900.2kbits/s speed=0.0638x    frame=  356 fps=3.2 q=-0.0 size=    7671kB time=00:00:07.10 bitrate=8850.1kbits/s speed=0.0638x    frame=  358 fps=3.2 q=-0.0 size=    7671kB time=00:00:07.14 bitrate=8800.5kbits/s speed=0.0638x    frame=  360 fps=3.2 q=-0.0 size=    7671kB time=00:00:07.18 bitrate=8751.5kbits/s speed=0.0637x    frame=  362 fps=3.2 q=-0.0 size=    7936kB time=00:00:07.22 bitrate=9003.7kbits/s speed=0.0638x    frame=  364 fps=3.2 q=-0.0 size=    7936kB time=00:00:07.26 bitrate=8954.1kbits/s speed=0.0638x    frame=  366 fps=3.2 q=-0.0 size=    7936kB time=00:00:07.30 bitrate=8905.0kbits/s speed=0.0638x    frame=  368 fps=3.2 q=-0.0 size=    7936kB time=00:00:07.34 bitrate=8856.5kbits/s speed=0.0638x    frame=  370 fps=3.2 q=-0.0 size=    7936kB time=00:00:07.38 bitrate=8808.5kbits/s speed=0.0638x    frame=  372 fps=3.2 q=-0.0 size=    7936kB time=00:00:07.42 bitrate=8761.0kbits/s speed=0.0637x    frame=  374 fps=3.2 q=-0.0 size=    8195kB time=00:00:07.46 bitrate=8998.3kbits/s speed=0.0638x    frame=  376 fps=3.2 q=-0.0 size=    8195kB time=00:00:07.50 bitrate=8950.4kbits/s speed=0.0638x    frame=  378 fps=3.2 q=-0.0 size=    8195kB time=00:00:07.54 bitrate=8902.9kbits/s speed=0.0638x    frame=  380 fps=3.2 q=-0.0 size=    8195kB time=00:00:07.58 bitrate=8855.9kbits/s speed=0.0638x    frame=  382 fps=3.2 q=-0.0 size=    8195kB time=00:00:07.62 bitrate=8809.4kbits/s speed=0.0638x    frame=  384 fps=3.2 q=-0.0 size=    8195kB time=00:00:07.66 bitrate=8763.4kbits/s speed=0.0637x    frame=  386 fps=3.2 q=-0.0 size=    8453kB time=00:00:07.70 bitrate=8991.8kbits/s speed=0.0638x    frame=  388 fps=3.2 q=-0.0 size=    8453kB time=00:00:07.74 bitrate=8945.3kbits/s speed=0.0638x    frame=  390 fps=3.2 q=-0.0 size=    8453kB time=00:00:07.78 bitrate=8899.3kbits/s speed=0.0638x    frame=  392 fps=3.2 q=-0.0 size=    8453kB time=00:00:07.82 bitrate=8853.8kbits/s speed=0.0638x    frame=  394 fps=3.2 q=-0.0 size=    8453kB time=00:00:07.86 bitrate=8808.8kbits/s speed=0.0638x    frame=  396 fps=3.2 q=-0.0 size=    8453kB time=00:00:07.90 bitrate=8764.2kbits/s speed=0.0637x    frame=  398 fps=3.2 q=-0.0 size=    8732kB time=00:00:07.94 bitrate=9007.7kbits/s speed=0.0638x    frame=  400 fps=3.2 q=-0.0 size=    8732kB time=00:00:07.98 bitrate=8962.6kbits/s speed=0.0638x    frame=  402 fps=3.2 q=-0.0 size=    8732kB time=00:00:08.02 bitrate=8917.9kbits/s speed=0.0638x    frame=  404 fps=3.2 q=-0.0 size=    8732kB time=00:00:08.06 bitrate=8873.6kbits/s speed=0.0638x    frame=  406 fps=3.2 q=-0.0 size=    8732kB time=00:00:08.10 bitrate=8829.8kbits/s speed=0.0638x    frame=  408 fps=3.2 q=-0.0 size=    8732kB time=00:00:08.14 bitrate=8786.4kbits/s speed=0.0637x    frame=  410 fps=3.2 q=-0.0 size=    8988kB time=00:00:08.18 bitrate=9000.2kbits/s speed=0.0638x    frame=  412 fps=3.2 q=-0.0 size=    8988kB time=00:00:08.22 bitrate=8956.4kbits/s speed=0.0638x    frame=  414 fps=3.2 q=-0.0 size=    8988kB time=00:00:08.26 bitrate=8913.0kbits/s speed=0.0638x    frame=  416 fps=3.2 q=-0.0 size=    8988kB time=00:00:08.30 bitrate=8870.1kbits/s speed=0.0638x    frame=  418 fps=3.2 q=-0.0 size=    8988kB time=00:00:08.34 bitrate=8827.5kbits/s speed=0.0638x    frame=  420 fps=3.2 q=-0.0 size=    8988kB time=00:00:08.38 bitrate=8785.4kbits/s speed=0.0638x    frame=  422 fps=3.2 q=-0.0 size=    9253kB time=00:00:08.42 bitrate=9001.0kbits/s speed=0.0638x    frame=  424 fps=3.2 q=-0.0 size=    9253kB time=00:00:08.46 bitrate=8958.4kbits/s speed=0.0638x    frame=  426 fps=3.2 q=-0.0 size=    9253kB time=00:00:08.50 bitrate=8916.3kbits/s speed=0.0638x    frame=  428 fps=3.2 q=-0.0 size=    9253kB time=00:00:08.54 bitrate=8874.5kbits/s speed=0.0638x    frame=  430 fps=3.2 q=-0.0 size=    9253kB time=00:00:08.58 bitrate=8833.2kbits/s speed=0.0638x    frame=  432 fps=3.2 q=-0.0 size=    9253kB time=00:00:08.62 bitrate=8792.2kbits/s speed=0.0638x    frame=  434 fps=3.2 q=-0.0 size=    9514kB time=00:00:08.66 bitrate=8998.7kbits/s speed=0.0638x    frame=  436 fps=3.2 q=-0.0 size=    9514kB time=00:00:08.70 bitrate=8957.3kbits/s speed=0.0638x    frame=  438 fps=3.2 q=-0.0 size=    9514kB time=00:00:08.74 bitrate=8916.4kbits/s speed=0.0638x    frame=  440 fps=3.2 q=-0.0 size=    9514kB time=00:00:08.78 bitrate=8875.7kbits/s speed=0.0638x    frame=  442 fps=3.2 q=-0.0 size=    9514kB time=00:00:08.82 bitrate=8835.5kbits/s speed=0.0638x    frame=  444 fps=3.2 q=-0.0 size=    9514kB time=00:00:08.86 bitrate=8795.6kbits/s speed=0.0637x    frame=  447 fps=3.2 q=-0.0 size=    9792kB time=00:00:08.92 bitrate=8992.0kbits/s speed=0.0638x    frame=  449 fps=3.2 q=-0.0 size=    9792kB time=00:00:08.96 bitrate=8951.8kbits/s speed=0.0636x    frame=  451 fps=3.2 q=-0.0 size=    9792kB time=00:00:09.00 bitrate=8912.0kbits/s speed=0.0636x    frame=  453 fps=3.2 q=-0.0 size=    9792kB time=00:00:09.04 bitrate=8872.6kbits/s speed=0.0636x    frame=  455 fps=3.2 q=-0.0 size=    9792kB time=00:00:09.08 bitrate=8833.5kbits/s speed=0.0635x    frame=  457 fps=3.2 q=-0.0 size=   10049kB time=00:00:09.12 bitrate=9025.2kbits/s speed=0.0635x    frame=  460 fps=3.2 q=-0.0 size=   10049kB time=00:00:09.18 bitrate=8966.2kbits/s speed=0.0636x    frame=  462 fps=3.2 q=-0.0 size=   10049kB time=00:00:09.22 bitrate=8927.3kbits/s speed=0.0636x    frame=  464 fps=3.2 q=-0.0 size=   10049kB time=00:00:09.26 bitrate=8888.8kbits/s speed=0.0636x    frame=  466 fps=3.2 q=-0.0 size=   10049kB time=00:00:09.30 bitrate=8850.5kbits/s speed=0.0635x    frame=  468 fps=3.2 q=-0.0 size=   10049kB time=00:00:09.34 bitrate=8812.6kbits/s speed=0.0635x    frame=  470 fps=3.2 q=-0.0 size=   10336kB time=00:00:09.38 bitrate=9026.0kbits/s speed=0.0636x    frame=  472 fps=3.2 q=-0.0 size=   10336kB time=00:00:09.42 bitrate=8987.7kbits/s speed=0.0636x    frame=  474 fps=3.2 q=-0.0 size=   10336kB time=00:00:09.46 bitrate=8949.7kbits/s speed=0.0636x    frame=  476 fps=3.2 q=-0.0 size=   10336kB time=00:00:09.50 bitrate=8912.0kbits/s speed=0.0636x    frame=  478 fps=3.2 q=-0.0 size=   10336kB time=00:00:09.54 bitrate=8874.6kbits/s speed=0.0635x    frame=  480 fps=3.2 q=-0.0 size=   10336kB time=00:00:09.58 bitrate=8837.6kbits/s speed=0.0635x    frame=  482 fps=3.2 q=-0.0 size=   10592kB time=00:00:09.62 bitrate=9018.4kbits/s speed=0.0636x    frame=  484 fps=3.2 q=-0.0 size=   10592kB time=00:00:09.66 bitrate=8981.0kbits/s speed=0.0636x    frame=  486 fps=3.2 q=-0.0 size=   10592kB time=00:00:09.70 bitrate=8944.0kbits/s speed=0.0636x    frame=  487 fps=3.2 q=-0.0 size=   10592kB time=00:00:09.72 bitrate=8925.6kbits/s speed=0.0634x    frame=  489 fps=3.2 q=-0.0 size=   10592kB time=00:00:09.76 bitrate=8889.0kbits/s speed=0.0634x    frame=  491 fps=3.2 q=-0.0 size=   10592kB time=00:00:09.80 bitrate=8852.8kbits/s speed=0.0634x    frame=  493 fps=3.2 q=-0.0 size=   10865kB time=00:00:09.84 bitrate=9044.8kbits/s speed=0.0634x    frame=  496 fps=3.2 q=-0.0 size=   10865kB time=00:00:09.90 bitrate=8990.0kbits/s speed=0.0635x    frame=  498 fps=3.2 q=-0.0 size=   10865kB time=00:00:09.94 bitrate=8953.8kbits/s speed=0.0634x    frame=  500 fps=3.2 q=-0.0 size=   10865kB time=00:00:09.98 bitrate=8917.9kbits/s speed=0.0634x    frame=  500 fps=3.2 q=-0.0 Lsize=   11061kB time=00:00:09.98 bitrate=9078.2kbits/s speed=0.0633x    
video:11052kB audio:0kB subtitle:0kB other streams:0kB global headers:3kB muxing overhead: 0.083646%
bench: utime=144.196s
bench: maxrss=202840kB
